<svg xmlns="http://www.w3.org/2000/svg" viewBox="0 0 53.331 12.462" height="47.102" width="201.567"><g fill="#fff"><g style="line-height:1.25;-inkscape-font-specification:'Berlin Sans FB, Normal';font-variant-ligatures:normal;font-variant-caps:normal;font-variant-numeric:normal;font-variant-east-asian:normal" aria-label="hub" font-weight="400" font-size="13.633" font-family="Berlin Sans FB" letter-spacing="0" word-spacing="0" stroke-width=".32"><path style="-inkscape-font-specification:'Berlin Sans FB, Normal';font-variant-ligatures:normal;font-variant-caps:normal;font-variant-numeric:normal;font-variant-east-asian:normal" d="M32.483 12.11q0 .246-.14.246-.207 0-.626-.007-.42-.007-.626-.007-.166 0-.166-.22 0-.32.02-.965.027-.646.027-.972 0-.306-.027-.925-.02-.626-.02-.939 0-1.198-1.132-1.198-.366 0-.958.366-.633.393-.633.72v3.953q0 .193-.14.193-.206 0-.618-.007-.413-.007-.62-.007-.153 0-.153-.18V8.946q0-.785-.086-3.341-.013-.792-.113-2.343-.014-.08-.014-.107 0-.113.08-.14.113-.04.752-.04.14 0 .42-.046.28-.054.406-.054.086 0 .086.127 0 .626-.053 1.884-.046 1.251-.046 1.877 0 .153.053.16.34-.287.878-.693.653-.406 1.378-.406 1.252 0 1.724.746.34.546.34 1.73 0 .207-.013.64-.007.426-.007.632 0 .426.013 1.271.014.846.014 1.265zM39.918 6.305q0 .486-.04 1.471-.04.979-.04 1.471 0 .486.027 1.458.033.965.033 1.451 0 .133-.126.173-.054.014-1.352.014-.08 0-.1-.5-.013-.499-.073-.499-.033 0-.1.06-1.111.965-2.196.965-1.471 0-1.944-1.065-.293-.659-.293-2.37 0-1.544.246-2.616.06-.26.22-.26.193 0 .58.008.385.007.578.007.133 0 .133.146 0 .26-.086.865-.093.646-.1.912-.02.4-.02.88 0 1.164.166 1.563.287.72 1.272.72.42 0 .992-.413.606-.433.625-.832.034-.5.034-3.515 0-.326.273-.326h1.098q.193 0 .193.233zM47.893 9.127q0 1.318-.819 2.297-.872 1.038-2.17 1.038-.865 0-1.524-.439-.267-.226-.533-.446-.073.02-.1.4-.02.379-.106.379h-1.405q-.08 0-.08-.087l.014-.12q.106-1.065.106-4.073 0-1.232-.106-3.615-.067-1.518-.067-1.331 0-.173.173-.193.24-.007.712-.027.093-.007.38-.046.24-.04.386-.04.106 0 .106.153 0 .226-.033.692-.033.466-.033.699 0 .346-.034 1.045-.026.692-.026 1.039 0 .252.093.252.047 0 .1-.073.732-.912 1.937-.912 1.378 0 2.23 1.032.799.972.799 2.377zm-1.505-.06q0-.792-.499-1.397-.532-.646-1.311-.646-.8 0-1.332.632-.512.6-.512 1.411 0 .826.512 1.425.533.626 1.345.626.786 0 1.311-.646.486-.6.486-1.405z"/></g><g style="line-height:1.25;-inkscape-font-specification:'3ds Light, Normal';font-variant-ligatures:normal;font-variant-caps:normal;font-variant-numeric:normal;font-variant-east-asian:normal" aria-label="TAMS" font-weight="400" font-size="9.734" font-family="3ds Light" letter-spacing="0" word-spacing="0" stroke-width=".304"><path style="-inkscape-font-specification:'3ds Light, Normal';font-variant-ligatures:normal;font-variant-caps:normal;font-variant-numeric:normal;font-variant-east-asian:normal" d="M2.258 12.365V6.408H0v-.516h5.1v.516H2.843v5.957zM5.93 12.365V8.16q0-.506.118-.944.116-.438.389-.75.273-.311.72-.486.458-.185 1.12-.185.671 0 1.12.185.457.175.72.486.272.312.389.75.117.438.117.944v4.205h-.584v-2.57H6.515v2.57zm.585-3.086h3.524V8.17q0-.389-.078-.73-.078-.34-.273-.583-.194-.254-.535-.4-.34-.146-.876-.146t-.876.146q-.341.146-.545.4-.195.243-.273.584-.068.34-.068.73zM12.722 12.365V5.892h.75l2.52 3.796 2.521-3.796h.75v6.473h-.565V6.632l-2.414 3.64H15.7l-2.414-3.64v5.733zM21.203 11.635q.34.117.866.224.526.097 1.08.097.614 0 .994-.195.389-.194.389-.68 0-.351-.253-.673-.253-.32-.643-.623-.38-.311-.827-.613-.438-.311-.827-.623-.38-.321-.633-.662-.253-.34-.253-.72 0-.438.175-.7.185-.273.477-.42.292-.145.672-.194.389-.058.798-.058.448 0 .895.058.448.049.701.097l-.078.526q-.126-.03-.311-.059-.185-.029-.4-.048-.204-.03-.418-.04-.204-.019-.37-.019-.301 0-.574.03-.273.02-.487.107-.204.078-.33.243-.117.156-.117.428 0 .302.253.594.253.282.632.574.38.283.818.584.438.302.818.633.38.321.632.691.253.37.253.798 0 .429-.155.711-.156.282-.429.448-.262.165-.632.233-.37.078-.799.078-.584 0-1.129-.097-.545-.107-.905-.234z"/></g><path d="M51.263 0s-.233 1.212-.133 2.081 2.13 3.274 2.197 4.502c.067 1.228-.618 3.357-1.854 3.625-1.236.267-2.59-3.158-2.523-4.544.067-1.386 1.236-2.69 1.236-2.69s-.367 1.137-.367 1.52c0 .385.033 1.554.785 2.623.752 1.07.677 2.272.677 2.272s.684-.71.651-1.996c-.033-1.286-1.403-2.748-1.428-4.26-.025-1.511.759-3.133.759-3.133z"/><path d="M52.262 11.588a.874.874 0 01-.874.874.874.874 0 01-.874-.874.874.874 0 01.874-.874.874.874 0 01.874.874" paint-order="markers fill stroke"/></g></svg>